<svg xmlns="http://www.w3.org/2000/svg" width="146.572" height="17.932" viewBox="0 0 146.572 17.932">
  <g id="Symbol_3_1" data-name="Symbol 3 – 1" transform="translate(0 -5.366)">
    <g id="Group_25" data-name="Group 25" transform="translate(-70 -67)">
      <path id="Path_51" data-name="Path 51" d="M170.868,62.406a2.216,2.216,0,0,0,.067,1.128l5.092-.586Z" transform="translate(23.659 18.232)" fill="#fff" fill-rule="evenodd"/>
      <path id="Path_52" data-name="Path 52" d="M179.334,70.324c.055.778.125,1.592.18,2.371l.29-.011c.031-.761.124-2.344.124-2.344Z" transform="translate(22.983 17.602)" fill="#fff" fill-rule="evenodd"/>
      <path id="Path_53" data-name="Path 53" d="M179.136,66.877c.351.011.342-.015,1.012-.008l-.54-1.761Z" transform="translate(22.998 18.017)" fill="#fff" fill-rule="evenodd"/>
      <path id="Path_54" data-name="Path 54" d="M180.147,59.542c-.351-.012-.342.014-1.011.007l.539,1.76Z" transform="translate(22.998 18.46)" fill="#fff" fill-rule="evenodd"/>
      <path id="Path_55" data-name="Path 55" d="M188.775,63.5l-.038-1.1-5.035.587Z" transform="translate(22.635 18.232)" fill="#fff" fill-rule="evenodd"/>
      <path id="Path_56" data-name="Path 56" d="M152.362,55.92c2.062,0,4.123-.01,6.185,0a4.448,4.448,0,0,1,4.141,2.5,2.079,2.079,0,0,1-.252,2.741c-.8.677-1.616.4-2.212-.543a2.966,2.966,0,0,0-2.864-1.164c-3.722,0-7.444.049-11.167.117-.649.012-1.683-.363-1.613.931.056,1.044.962.774,1.58.779,2.461.025,4.925-.078,7.382.033a10.478,10.478,0,0,1,8.748,4.791c.555.834,1.145,1.756.107,2.644-.917.782-1.61.122-2.234-.588a11.168,11.168,0,0,0-9-3.83c-1.264.015-2.532.1-3.788.012-2.031-.15-3.558.118-3.131,3.011a1.329,1.329,0,0,1-1.293,1.585,1.469,1.469,0,0,1-1.7-1.436c-.239-2.942-.595-5.939.374-8.795a4.072,4.072,0,0,1,4.153-2.762c2.194-.056,4.389-.014,6.584-.014Z" transform="translate(26.031 18.748)" fill="#fff" fill-rule="evenodd"/>
      <path id="Path_57" data-name="Path 57" d="M72.618,69.1c-2.393,0-4.788.034-7.18-.007-3.312-.057-5.336-2.269-5.561-6-.219-3.659,1.729-6.814,4.789-7.07a139.17,139.17,0,0,1,15.739-.081c.882.027,1.79.277,1.884,1.5.107,1.384-.875,1.676-1.812,1.817-3.241.489-6.5.127-9.757.216-1.594.042-3.19-.017-4.787.013-2.053.039-2.917.891-2.987,2.871-.078,2.208.848,3.4,2.957,3.434,4.32.075,8.643.021,12.964.035a11.318,11.318,0,0,1,1.982.14,1.508,1.508,0,0,1,1.429,1.722c-.077,1.137-.828,1.395-1.68,1.4-2.66.022-5.32.009-7.979.01" transform="translate(32.479 18.76)" fill="#fff" fill-rule="evenodd"/>
      <path id="Path_58" data-name="Path 58" d="M99.728,69.108c-2.329,0-4.659.023-6.987-.006A5.993,5.993,0,0,1,86.9,63.027c-.147-3.694,2.343-7.052,5.567-7.139,4.855-.132,9.715-.067,14.573-.014,1.027.011,2.345.047,2.329,1.685-.015,1.558-1.305,1.758-2.333,1.791-3.723.119-7.448.1-11.173.136-.864.007-1.731-.026-2.595.009-2.266.09-3.25,1.057-3.237,3.134.016,2.119,1,3.157,3.214,3.181,4.258.045,8.518-.022,12.777.035,1.313.018,3.322-.486,3.372,1.6.051,2.189-1.963,1.61-3.272,1.647-2.128.061-4.259.017-6.389.017" transform="translate(30.331 18.756)" fill="#fff" fill-rule="evenodd"/>
      <path id="Path_59" data-name="Path 59" d="M125.442,69.215c-1.793,0-3.587-.024-5.381.006a5.736,5.736,0,0,1-5.779-5.312,48.61,48.61,0,0,1-.029-5.627c.026-.992.361-1.95,1.442-1.98,1.218-.035,1.515,1.025,1.578,2.073.087,1.44.03,2.887.074,4.33.058,1.965.957,3.144,2.818,3.168q5.379.075,10.76.017c1.88-.022,2.729-1.272,2.8-3.2.052-1.442-.029-2.89.04-4.331.051-1.08.446-2.069,1.6-2.092,1.312-.028,1.365,1.122,1.379,2.156.022,1.732.086,3.473-.03,5.2-.229,3.4-2.553,5.629-5.693,5.607-1.859-.012-3.72,0-5.58,0Z" transform="translate(28.161 18.72)" fill="#fff" fill-rule="evenodd"/>
      <path id="Path_60" data-name="Path 60" d="M45.427,55.382a4.159,4.159,0,0,1,3.256,1.835q2.922,4.12,5.831,8.251c.666.944,1.416,2.036.33,3.035-1.245,1.144-2.057-.061-2.755-1.036-1.55-2.169-3.044-4.383-4.593-6.553-1.7-2.376-2.178-2.372-3.848-.06-1.641,2.273-3.26,4.567-4.92,6.825-.623.849-1.3,1.8-2.468.9-1.249-.962-.472-1.87.128-2.738,2.038-2.943,4.094-5.871,6.136-8.81a3.7,3.7,0,0,1,2.9-1.65" transform="translate(34.408 18.79)" fill="#fff" fill-rule="evenodd"/>
      <path id="Path_61" data-name="Path 61" d="M47.979,66.537c-.023,1.291-.684,1.928-1.728,1.94a1.771,1.771,0,0,1-1.787-1.888A1.744,1.744,0,0,1,46.236,64.7a1.722,1.722,0,0,1,1.743,1.835" transform="translate(33.703 18.049)" fill="#fff" fill-rule="evenodd"/>
      <path id="Path_62" data-name="Path 62" d="M179.985,55.791c-.055-.779-.125-1.592-.179-2.371l-.289.01c-.032.762-.124,2.344-.124,2.344Z" transform="translate(22.978 18.946)" fill="#fff" fill-rule="evenodd"/>
      <path id="Path_63" data-name="Path 63" d="M166.986,62.684c-.716.06-1.465.136-2.182.2,0,.1.007.21.01.315.7.035,2.157.134,2.157.134Z" transform="translate(24.138 18.21)" fill="#fff" fill-rule="evenodd"/>
      <path id="Path_64" data-name="Path 64" d="M192.45,63.393c.716-.06,1.465-.136,2.182-.2,0-.106-.007-.21-.01-.315-.7-.035-2.157-.134-2.157-.134Z" transform="translate(21.94 18.205)" fill="#fff" fill-rule="evenodd"/>
      <path id="Path_65" data-name="Path 65" d="M190.469,62.44c0-5.907-3.2-6.5-8.232-6.5-1.15,0-7.5-.065-9.22.022a6.192,6.192,0,0,0-5.955,6.254c.007,4.72,1.852,6.965,6,6.965l10.3,0c4.311,0,7.109-.686,7.109-6.745m-3.054,1.97a1.675,1.675,0,0,1-1.6,1.74H172.237a1.674,1.674,0,0,1-1.6-1.74V61.038a1.674,1.674,0,0,1,1.6-1.74h13.576a1.675,1.675,0,0,1,1.6,1.74Z" transform="translate(23.958 18.748)" fill="#fff" fill-rule="evenodd"/>
    </g>
  </g>
</svg>
