<?xml version="1.0" encoding="UTF-8" standalone="no"?>
<!-- Created with Inkscape (http://www.inkscape.org/) -->

<svg
   xmlns:dc="http://purl.org/dc/elements/1.1/"
   xmlns:cc="http://creativecommons.org/ns#"
   xmlns:rdf="http://www.w3.org/1999/02/22-rdf-syntax-ns#"
   xmlns:svg="http://www.w3.org/2000/svg"
   xmlns="http://www.w3.org/2000/svg"
   xmlns:sodipodi="http://sodipodi.sourceforge.net/DTD/sodipodi-0.dtd"
   xmlns:inkscape="http://www.inkscape.org/namespaces/inkscape"
   width="161.02086"
   height="41.47068"
   viewBox="0 0 42.603435 10.972451"
   version="1.1"
   id="svg2002"
   inkscape:version="0.92.0 r15299"
   sodipodi:docname="choice hotels.svg">
  <defs
     id="defs1996">
    <style
       id="style2004">.cls-1{fill:none;}.cls-2{clip-path:url(#clip-path);}.cls-3{fill:#ffce34;}.cls-4{fill:#f57f29;}.cls-5{fill:#6a634d;}.cls-6{fill:#231f20;}</style>
    <clipPath
       transform="translate(0 0)"
       id="clip-path">
      <rect
         id="rect2006"
         height="40.439999"
         width="159.98"
         class="cls-1"
         x="0"
         y="0"
         style="fill:none" />
    </clipPath>
  </defs>
  <sodipodi:namedview
     id="base"
     pagecolor="#ffffff"
     bordercolor="#666666"
     borderopacity="1.0"
     inkscape:pageopacity="0.0"
     inkscape:pageshadow="2"
     inkscape:zoom="5.6069511"
     inkscape:cx="80.006515"
     inkscape:cy="20.250685"
     inkscape:document-units="mm"
     inkscape:current-layer="layer1"
     showgrid="false"
     fit-margin-top="0"
     fit-margin-left="0"
     fit-margin-right="0"
     fit-margin-bottom="0"
     units="px"
     inkscape:window-width="1280"
     inkscape:window-height="744"
     inkscape:window-x="-4"
     inkscape:window-y="-4"
     inkscape:window-maximized="1" />
  <metadata
     id="metadata1999">
    <rdf:RDF>
      <cc:Work
         rdf:about="">
        <dc:format>image/svg+xml</dc:format>
        <dc:type
           rdf:resource="http://purl.org/dc/dcmitype/StillImage" />
        <dc:title></dc:title>
      </cc:Work>
    </rdf:RDF>
  </metadata>
  <g
     inkscape:label="Layer 1"
     inkscape:groupmode="layer"
     id="layer1"
     transform="translate(31.751723,-317.84388)">
    <g
       id="g2104"
       transform="translate(0.1322915,-0.1322887)">
      <path
         id="path2013"
         d="m -27.537832,318.10846 v 3.70417 0 a 3.2146875,3.2146875 0 0 0 3.217333,-3.20675 v -0.49742 z"
         class="cls-3"
         inkscape:connector-curvature="0"
         style="fill:#ffce34;stroke-width:0.26458332" />
      <path
         id="path2015"
         d="m -24.320499,325.72317 v -3.70417 0 a 3.2120416,3.2120416 0 0 0 -3.214687,3.20675 v 0.49742 z"
         class="cls-3"
         inkscape:connector-curvature="0"
         style="fill:#ffce34;stroke-width:0.26458332" />
      <path
         id="path2017"
         d="m -28.635853,325.72317 a 3.8840833,3.8840833 0 0 1 0,-7.61471 z"
         class="cls-4"
         inkscape:connector-curvature="0"
         style="fill:#f57f29;stroke-width:0.26458332" />
      <path
         id="path2019"
         d="m -18.848916,324.98763 c -1.058333,0 -1.907645,-0.32544 -2.516187,-0.96573 a 2.9924375,2.9924375 0 0 1 -0.828146,-2.14577 3.2305625,3.2305625 0 0 1 0.896938,-2.286 3.556,3.556 0 0 1 2.696104,-1.05834 4.0137291,4.0137291 0 0 1 1.817687,0.39688 0.06879167,0.06879167 0 0 1 0.03704,0.0609 v 1.32292 a 0.06879167,0.06879167 0 0 1 -0.05556,0.0661 h -0.01323 a 0.06614583,0.06614583 0 0 1 -0.06085,-0.0423 c -0.320146,-0.80433 -0.944563,-1.18798 -1.907646,-1.18798 a 2.2092708,2.2092708 0 0 0 -1.785937,0.79375 2.6458333,2.6458333 0 0 0 -0.60325,1.76477 2.7331458,2.7331458 0 0 0 0.624416,1.80975 2.3203958,2.3203958 0 0 0 1.867959,0.82021 2.6775833,2.6775833 0 0 0 1.989666,-0.92339 0.06879167,0.06879167 0 0 1 0.03969,-0.0132 h 0.02381 a 0.06614583,0.06614583 0 0 1 0.04233,0.0635 v 0.59002 a 0.06879167,0.06879167 0 0 1 -0.01852,0.0476 2.9977291,2.9977291 0 0 1 -2.246313,0.88636"
         class="cls-5"
         inkscape:connector-curvature="0"
         style="fill:#6a634d;stroke-width:0.26458332" />
      <path
         id="path2021"
         d="m -6.162145,319.14033 a 3.0056666,3.0056666 0 0 0 -2.2013333,0.85196 2.8945416,2.8945416 0 0 0 -0.85725,2.13254 2.7966458,2.7966458 0 0 0 0.79375,2.05582 2.8389791,2.8389791 0 0 0 2.1034375,0.80698 2.9792083,2.9792083 0 0 0 2.2119166,-0.87313 2.8918958,2.8918958 0 0 0 0.8307917,-2.11667 2.746375,2.746375 0 0 0 -2.8813125,-2.8575 m 1.9790833,3.05065 a 2.2463125,2.2463125 0 0 1 -0.5476875,1.56898 1.8362083,1.8362083 0 0 1 -1.412875,0.59531 1.9737916,1.9737916 0 0 1 -1.5610416,-0.69056 2.6299583,2.6299583 0 0 1 -0.5979583,-1.78329 2.1775208,2.1775208 0 0 1 0.5291666,-1.53723 1.8520833,1.8520833 0 0 1 1.4261042,-0.5715 1.9817291,1.9817291 0 0 1 1.5663333,0.67469 2.5638125,2.5638125 0 0 1 0.5926667,1.74095"
         class="cls-5"
         inkscape:connector-curvature="0"
         style="fill:#6a634d;stroke-width:0.26458332" />
      <path
         id="path2023"
         d="m -1.0953742,319.85471 a 0.32279166,0.32279166 0 0 1 0,-0.045 0.43391666,0.43391666 0 0 1 0.34131248,-0.35454 v 0 a 0.09260417,0.09260417 0 0 0 0.0687917,-0.0979 0.09525,0.09525 0 0 0 -0.0926042,-0.0847 H -2.3494992 a 0.09306604,0.09306604 0 0 0 -0.018521,0.1852 v 0 a 0.43391666,0.43391666 0 0 1 0.34925,0.42334 v 4.37885 a 0.43391666,0.43391666 0 0 1 -0.34925,0.42334 v 0 a 0.05027083,0.05027083 0 0 0 -0.039687,0.0185 0.10054167,0.10054167 0 0 0 -0.026458,0.0741 0.09525,0.09525 0 0 0 0.092604,0.0873 h 1.56633331 a 0.09260417,0.09260417 0 0 0 0.0926042,-0.0926 0.079375,0.079375 0 0 0 -0.0661458,-0.0847 v 0 a 0.43391666,0.43391666 0 0 1 -0.35454161,-0.42333 v -4.38415 c 0,0 0,-0.0159 0,-0.0238"
         class="cls-5"
         inkscape:connector-curvature="0"
         style="fill:#6a634d;stroke-width:0.26458332" />
      <path
         id="path2025"
         d="m 5.2070007,323.49802 a 0.09260417,0.09260417 0 0 0 -0.1031875,0.0238 2.3627291,2.3627291 0 0 1 -1.7541875,0.81492 2.0399375,2.0399375 0 0 1 -1.6430625,-0.72231 2.4156458,2.4156458 0 0 1 -0.5503333,-1.5875 2.3415625,2.3415625 0 0 1 0.5291667,-1.55575 1.9446875,1.9446875 0 0 1 1.571625,-0.69586 c 0.8519583,0 1.4022916,0.33603 1.6827499,1.02923 a 0.09260417,0.09260417 0 0 0 0.1031875,0.0582 0.09525,0.09525 0 0 0 0.076729,-0.0926 v -1.18798 a 0.09525,0.09525 0 0 0 -0.050271,-0.0847 3.6300833,3.6300833 0 0 0 -1.6271875,-0.35719 3.2120416,3.2120416 0 0 0 -2.4341666,0.96309 2.9104166,2.9104166 0 0 0 -0.81227087,2.07962 2.7066875,2.7066875 0 0 0 0.74877082,1.9394 3.000375,3.000375 0 0 0 2.27277085,0.87312 2.7093333,2.7093333 0 0 0 2.0319999,-0.81756 0.09260417,0.09260417 0 0 0 0.026458,-0.0635 v -0.52917 a 0.09260417,0.09260417 0 0 0 -0.058208,-0.0873"
         class="cls-5"
         inkscape:connector-curvature="0"
         style="fill:#6a634d;stroke-width:0.26458332" />
      <path
         id="path2027"
         d="m 10.511896,323.43981 a 0.09525,0.09525 0 0 0 -0.111125,0.0529 l -0.01852,0.037 a 1.1218333,1.1218333 0 0 1 -1.0583337,0.7329 H 7.5168132 v -1.96321 h 1.6748125 c 0.3492499,0 0.5291666,0.10054 0.5688541,0.30427 a 0.09260417,0.09260417 0 0 0 0.092604,0.0794 v 0 a 0.09260417,0.09260417 0 0 0 0.084667,-0.0926 v -1.16417 a 0.09306604,0.09306604 0 0 0 -0.1852083,-0.0185 c -0.042333,0.20638 -0.2328333,0.30692 -0.5794375,0.30692 H 7.50623 v -1.91029 h 1.889125 a 0.79374999,0.79374999 0 0 1 0.769937,0.63764 v 0 a 0.09789583,0.09789583 0 0 0 0.08996,0.0741 v 0 a 0.09260417,0.09260417 0 0 0 0.08202,-0.0926 v -1.05833 a 0.09260417,0.09260417 0 0 0 -0.0926,-0.0926 H 6.2468132 a 0.0928401,0.0928401 0 0 0 -0.013229,0.1852 v 0 a 0.43391666,0.43391666 0 0 1 0.3836458,0.42598 v 4.36827 a 0.43391666,0.43391666 0 0 1 -0.3386666,0.42069 h -0.018521 a 0.09284093,0.09284093 0 0 0 0.013229,0.18521 h 4.0084376 a 0.09525,0.09525 0 0 0 0.0926,-0.0794 l 0.211667,-1.23296 a 0.09525,0.09525 0 0 0 -0.06615,-0.10584"
         class="cls-5"
         inkscape:connector-curvature="0"
         style="fill:#6a634d;stroke-width:0.26458332" />
      <path
         id="path2029"
         d="m -10.384895,319.87852 a 0.43391666,0.43391666 0 0 1 0.333375,-0.42333 v 0 a 0.09260417,0.09260417 0 0 0 0.071438,-0.0979 0.09525,0.09525 0 0 0 -0.071438,-0.0873 h -1.5875 a 0.09260417,0.09260417 0 0 0 -0.01852,0.18256 v 0 a 0.42862499,0.42862499 0 0 1 0.341313,0.42334 v 1.83356 h -3.050646 v -1.80975 0 -0.0212 a 0.43656249,0.43656249 0 0 1 0.346604,-0.42333 v 0 a 0.08995833,0.08995833 0 0 0 0.06615,-0.0953 0.09260417,0.09260417 0 0 0 -0.06615,-0.09 h -1.5875 a 0.09260417,0.09260417 0 0 0 -0.0926,0.0873 0.08995833,0.08995833 0 0 0 0.06879,0.0953 h 0.03969 a 0.43127083,0.43127083 0 0 1 0.312208,0.35719 q 0,0.0212 0,0.0423 c 0,0 0,0 0,0.0159 v 4.35504 0 0.0265 a 0.43391666,0.43391666 0 0 1 -0.328083,0.42069 v 0 l -0.0344,0.0159 a 0.09260417,0.09260417 0 0 0 -0.05821,0.09 0.09525,0.09525 0 0 0 0.0926,0.0873 h 1.5875 a 0.09260417,0.09260417 0 0 0 0.0926,-0.0873 0.09260417,0.09260417 0 0 0 -0.05821,-0.0926 h -0.0344 v 0 a 0.43391666,0.43391666 0 0 1 -0.333375,-0.42069 v -1.94734 h 3.050646 c 0,0 0,1.85209 0,1.88913 a 0.52916666,0.52916666 0 0 1 -0.02117,0.19579 0.43391666,0.43391666 0 0 1 -0.306916,0.26458 l -0.03704,0.0159 a 0.09260417,0.09260417 0 0 0 0.03969,0.17727 h 1.5875 a 0.09260417,0.09260417 0 0 0 0.03969,-0.17727 l -0.05027,-0.0106 a 0.43127083,0.43127083 0 0 1 -0.333375,-0.42069 z"
         class="cls-5"
         inkscape:connector-curvature="0"
         style="fill:#6a634d;stroke-width:0.26458332" />
      <polygon
         transform="matrix(0.26458333,0,0,0.26458333,-31.747353,318.10846)"
         id="polygon2031"
         points="71.17,36.52 74.28,36.52 74.28,33.81 75.42,33.81 75.42,40.33 74.28,40.33 74.28,37.58 71.17,37.58 71.17,40.33 70.03,40.33 70.03,33.81 71.17,33.81 "
         class="cls-4"
         style="fill:#f57f29" />
      <path
         id="path2033"
         d="m -9.6228949,328.80821 a 0.89164582,0.89164582 0 1 1 0.8942916,-0.89429 0.87577082,0.87577082 0 0 1 -0.904875,0.89429 m 0,-1.50548 a 0.58472916,0.58472916 0 0 0 -0.5820837,0.61119 0.59266666,0.59266666 0 0 0 0.5873754,0.61648 0.58472916,0.58472916 0 0 0 0.5820833,-0.61119 0.59266666,0.59266666 0 0 0 -0.587375,-0.61648"
         class="cls-4"
         inkscape:connector-curvature="0"
         style="fill:#f57f29;stroke-width:0.26458332" />
      <polygon
         transform="matrix(0.26458333,0,0,0.26458333,-31.747353,318.10846)"
         id="polygon2035"
         points="92.96,40.33 92.96,34.87 90.89,34.87 90.89,33.81 96.18,33.81 96.18,34.87 94.11,34.87 94.11,40.33 "
         class="cls-4"
         style="fill:#f57f29" />
      <polygon
         transform="matrix(0.26458333,0,0,0.26458333,-31.747353,318.10846)"
         id="polygon2037"
         points="102.26,37.55 102.26,39.3 105.99,39.3 105.99,40.33 101.11,40.33 101.11,33.81 105.94,33.81 105.94,34.84 102.26,34.84 102.26,36.53 105.53,36.53 105.53,37.55 "
         class="cls-4"
         style="fill:#f57f29" />
      <polygon
         transform="matrix(0.26458333,0,0,0.26458333,-31.747353,318.10846)"
         id="polygon2039"
         points="111.71,40.33 111.71,33.81 112.85,33.81 112.85,39.29 116.28,39.29 116.28,40.33 "
         class="cls-4"
         style="fill:#f57f29" />
      <path
         id="path2041"
         d="m 0.72231326,327.77898 c 0.36512504,0.09 0.55297914,0.2196 0.55297914,0.508 0,0.2884 -0.2645833,0.52917 -0.61647914,0.52917 a 1.0583333,1.0583333 0 0 1 -0.71966666,-0.26459 l 0.1825625,-0.21695 a 0.79374999,0.79374999 0 0 0 0.54504166,0.22489 0.26458333,0.26458333 0 0 0 0.30427083,-0.2196 c 0,-0.12436 -0.0687917,-0.19315 -0.3889375,-0.26459 -0.36777083,-0.0899 -0.57414582,-0.19843 -0.57414582,-0.52916 a 0.52916666,0.52916666 0 0 1 0.58737499,-0.50271 0.95249999,0.95249999 0 0 1 0.62441664,0.21696 l -0.15875,0.21431 a 0.79374999,0.79374999 0 0 0 -0.46831247,-0.17727 0.238125,0.238125 0 0 0 -0.28045833,0.20637 c 0,0.13494 0.079375,0.1958 0.41010416,0.26459"
         class="cls-4"
         inkscape:connector-curvature="0"
         style="fill:#f57f29;stroke-width:0.26458332" />
      <path
         id="path2043"
         d="m 1.6721674,327.42708 a 0.34395833,0.34395833 0 0 1 0.029104,-0.13758 0.365125,0.365125 0 0 1 0.076729,-0.11377 0.37041666,0.37041666 0 0 1 0.1137709,-0.0767 0.35454166,0.35454166 0 0 1 0.2645833,0 0.36247916,0.36247916 0 0 1 0.1905,0.1905 0.35454166,0.35454166 0 0 1 0,0.26458 0.37570833,0.37570833 0 0 1 -0.076729,0.11378 0.3730625,0.3730625 0 0 1 -0.1137708,0.0767 0.3571875,0.3571875 0 0 1 -0.2645833,0 0.36247916,0.36247916 0 0 1 -0.1905,-0.1905 0.34395833,0.34395833 0 0 1 -0.029104,-0.14022 m 0.0635,0 a 0.28839583,0.28839583 0 0 0 0.023813,0.11377 0.2936875,0.2936875 0 0 0 0.1561042,0.1561 0.29633333,0.29633333 0 0 0 0.2275416,0 0.29104166,0.29104166 0 0 0 0.1561042,-0.1561 0.2936875,0.2936875 0 0 0 0.023813,-0.11377 0.28839583,0.28839583 0 0 0 -0.023813,-0.11378 0.2936875,0.2936875 0 0 0 -0.1561042,-0.1561 0.29633333,0.29633333 0 0 0 -0.2275416,0 0.2936875,0.2936875 0 0 0 -0.1561042,0.1561 0.28575,0.28575 0 0 0 -0.023813,0.11378 m 0.1561042,-0.20638 h 0.15875 a 0.15875,0.15875 0 0 1 0.1084791,0.0318 0.11641667,0.11641667 0 0 1 0.034396,0.09 0.10847917,0.10847917 0 0 1 -0.026458,0.0794 0.11641667,0.11641667 0 0 1 -0.068792,0.0317 l 0.1058333,0.17198 h -0.084667 l -0.1031875,-0.16668 h -0.055562 v 0.18785 h -0.074083 v -0.41275 z m 0.074083,0.17727 h 0.089958 0.03175 a 0.047625,0.047625 0 0 0 0.03175,-0.0476 0.047625,0.047625 0 0 0 -0.03175,-0.0476 h -0.03175 -0.089958 v 0.11377 z"
         class="cls-6"
         inkscape:connector-curvature="0"
         style="fill:#231f20;stroke-width:0.26458332" />
    </g>
  </g>
</svg>
